<svg width="760" height="660" viewBox="0 0 760 660" xmlns="http://www.w3.org/2000/svg">
    <defs>
        <style>
            .axis { font: 16px sans-serif; fill: #111111; }
            .tick { font: 20px sans-serif; fill: #333333; }
            .tick-label { font: 14px sans-serif; fill: #333333; }
            .title { font: 20px sans-serif; font-weight: 600; fill: #111111; }
            .cell-label { font: 20px sans-serif; font-weight: 600; fill: #111111;}
            .level-low { fill: #8BC34A; }
            .level-moderate { fill: #FFEB3B; }
            .level-significant { fill: #FFB74D; }
            .level-high { fill: #F44336; }
        </style>
    </defs>

    <!-- Title -->
    <text class="title" x="380" y="30" text-anchor="middle">Priority level matrix</text>

    <!-- Axes labels -->
    <text class="axis" x="75" y="360" text-anchor="middle" transform="rotate(-90,75,360)">Probability</text>
    <text class="axis" x="390" y="640" text-anchor="middle">Impact</text>

    <!-- Axis ends (Low/High) -->
    <text class="tick-label" x="120" y="580" text-anchor="end">Low</text>
    <text class="tick-label" x="120" y="95"  text-anchor="end">High</text>
    <text class="tick-label" x="140" y="615" text-anchor="start">Low</text>
    <text class="tick-label" x="640" y="615" text-anchor="end">High</text>

    <!-- Grid origin and size -->
    <g id="grid" transform="translate(140,80)">
        <!-- Column ticks -->
        <g class="tick">
            <text x="50"  y="525" text-anchor="middle">1</text>
            <text x="150" y="525" text-anchor="middle">2</text>
            <text x="250" y="525" text-anchor="middle">3</text>
            <text x="350" y="525" text-anchor="middle">4</text>
            <text x="450" y="525" text-anchor="middle">5</text>
        </g>

        <!-- Row ticks -->
        <g class="tick">
            <text x="-10" y="455" text-anchor="end">1</text>
            <text x="-10" y="355" text-anchor="end">2</text>
            <text x="-10" y="255" text-anchor="end">3</text>
            <text x="-10" y="155" text-anchor="end">4</text>
            <text x="-10" y="55"  text-anchor="end">5</text>
        </g>

        <!-- Cells -->

        <!-- Row 5 (Probability=5) -->
        <rect x="0"   y="0"   width="100" height="100" class="level-low"/>
        <rect x="100" y="0"   width="100" height="100" class="level-moderate"/>
        <rect x="200" y="0"   width="100" height="100" class="level-significant"/>
        <rect x="300" y="0"   width="100" height="100" class="level-significant"/>
        <rect x="400" y="0"   width="100" height="100" class="level-high"/>

        <!-- Row 4 (Probability=4) -->
        <rect x="0"   y="100" width="100" height="100" class="level-low"/>
        <rect x="100" y="100" width="100" height="100" class="level-moderate"/>
        <rect x="200" y="100" width="100" height="100" class="level-moderate"/>
        <rect x="300" y="100" width="100" height="100" class="level-significant"/>
        <rect x="400" y="100" width="100" height="100" class="level-significant"/>

        <!-- Row 3 (Probability=3) -->
        <rect x="0"   y="200" width="100" height="100" class="level-low"/>
        <rect x="100" y="200" width="100" height="100" class="level-moderate"/>
        <rect x="200" y="200" width="100" height="100" class="level-moderate"/>
        <rect x="300" y="200" width="100" height="100" class="level-moderate"/>
        <rect x="400" y="200" width="100" height="100" class="level-significant"/>

        <!-- Row 2 (Probability=2) -->
        <rect x="0"   y="300" width="100" height="100" class="level-low"/>
        <rect x="100" y="300" width="100" height="100" class="level-low"/>
        <rect x="200" y="300" width="100" height="100" class="level-moderate"/>
        <rect x="300" y="300" width="100" height="100" class="level-moderate"/>
        <rect x="400" y="300" width="100" height="100" class="level-moderate"/>

        <!-- Row 1 (Probability=1) -->
        <rect x="0"   y="400" width="100" height="100" class="level-low"/>
        <rect x="100" y="400" width="100" height="100" class="level-low"/>
        <rect x="200" y="400" width="100" height="100" class="level-low"/>
        <rect x="300" y="400" width="100" height="100" class="level-low"/>
        <rect x="400" y="400" width="100" height="100" class="level-low"/>

        <!-- Grid lines -->
        <g fill="none" stroke="#333" stroke-opacity="0.6" stroke-width="1">
            <!-- vertical -->
            <path d="M0,0 v500"/>
            <path d="M100,0 v500"/>
            <path d="M200,0 v500"/>
            <path d="M300,0 v500"/>
            <path d="M400,0 v500"/>
            <path d="M500,0 v500"/>
            <!-- horizontal -->
            <path d="M0,0 h500"/>
            <path d="M0,100 h500"/>
            <path d="M0,200 h500"/>
            <path d="M0,300 h500"/>
            <path d="M0,400 h500"/>
            <path d="M0,500 h500"/>
        </g>

        <g class="cell-label">
            <!-- y=0 -->
            <text x="50"  y="55"  text-anchor="middle">5</text>
            <text x="150" y="55"  text-anchor="middle">10</text>
            <text x="250" y="55"  text-anchor="middle">15</text>
            <text x="350" y="55"  text-anchor="middle">20</text>
            <text x="450" y="55"  text-anchor="middle">25</text>
            <!-- y=100 -->
            <text x="50"  y="155" text-anchor="middle">4</text>
            <text x="150" y="155" text-anchor="middle">8</text>
            <text x="250" y="155" text-anchor="middle">12</text>
            <text x="350" y="155" text-anchor="middle">16</text>
            <text x="450" y="155" text-anchor="middle">20</text>
            <!-- y=200 -->
            <text x="50"  y="255" text-anchor="middle">3</text>
            <text x="150" y="255" text-anchor="middle">6</text>
            <text x="250" y="255" text-anchor="middle">9</text>
            <text x="350" y="255" text-anchor="middle">12</text>
            <text x="450" y="255" text-anchor="middle">15</text>
            <!-- y=300 -->
            <text x="50"  y="355" text-anchor="middle">2</text>
            <text x="150" y="355" text-anchor="middle">4</text>
            <text x="250" y="355" text-anchor="middle">6</text>
            <text x="350" y="355" text-anchor="middle">8</text>
            <text x="450" y="355" text-anchor="middle">10</text>
            <!-- y=400 -->
            <text x="50"  y="455" text-anchor="middle">1</text>
            <text x="150" y="455" text-anchor="middle">2</text>
            <text x="250" y="455" text-anchor="middle">3</text>
            <text x="350" y="455" text-anchor="middle">4</text>
            <text x="450" y="455" text-anchor="middle">5</text>
        </g>
    </g>

    <!-- Legend -->
    <g transform="translate(660,100)">
        <text class="axis" x="0" y="-10">Severity</text>
        <rect x="0" y="0"  width="20" height="20" class="level-low"/><text class="tick" x="28" y="15">Low</text>
        <rect x="0" y="30" width="20" height="20" class="level-moderate"/><text class="tick" x="28" y="45">Moderate</text>
        <rect x="0" y="60" width="20" height="20" class="level-significant"/><text class="tick" x="28" y="75">Significant</text>
        <rect x="0" y="90" width="20" height="20" class="level-high"/><text class="tick" x="28" y="105">High</text>
    </g>
</svg>
